<svg id="facebook_black" xmlns="http://www.w3.org/2000/svg" width="60" height="60" viewBox="0 0 60 60">
  <g id="Ellipse_3" data-name="Ellipse 3" fill="none" stroke="#242424" stroke-width="2">
    <circle cx="30" cy="30" r="30" stroke="none"/>
    <circle cx="30" cy="30" r="29" fill="none"/>
  </g>
  <path id="facebook" d="M7.363,22.648h4.369V37.78A1.261,1.261,0,0,0,13.034,39l6.953,0a1.263,1.263,0,0,0,1.3-1.219V22.649H25.43a1.276,1.276,0,0,0,1.291-1.068l.864-6.5a1.251,1.251,0,0,0-1.291-1.37H21.288c.2-4.015-.755-5.2,2.034-5.2,1.888-.211,4.865.684,4.865-1.219V1.477A1.248,1.248,0,0,0,27.063.27,49.85,49.85,0,0,0,21.694,0c-12.163,0-9.66,12.629-9.96,13.71H7.363a1.263,1.263,0,0,0-1.3,1.219v6.5a1.263,1.263,0,0,0,1.3,1.219Zm1.3-6.5h4.369a1.263,1.263,0,0,0,1.3-1.219V9.81c0-4.685,2.681-7.371,7.357-7.371,1.523,0,2.925.07,3.89.141V6.073c-.7.333-6.9-1.437-6.9,4.383v4.477a1.263,1.263,0,0,0,1.3,1.219h4.834l-.541,4.063H19.985a1.263,1.263,0,0,0-1.3,1.219v15.13H14.337V21.43a1.263,1.263,0,0,0-1.3-1.219H8.665Z" transform="translate(11.938 12)" fill="#242424"/>
</svg>
