<svg id="facebook" xmlns="http://www.w3.org/2000/svg" width="40" height="40" viewBox="0 0 40 40">
  <g id="Ellipse_3" data-name="Ellipse 3" fill="none" stroke="#fff" stroke-width="2">
    <circle cx="20" cy="20" r="20" stroke="none"/>
    <circle cx="20" cy="20" r="19" fill="none"/>
  </g>
  <path id="facebook-2" data-name="facebook" d="M6.93,15.1H9.842V25.186A.841.841,0,0,0,10.71,26h4.635a.842.842,0,0,0,.868-.812V15.1h2.761a.85.85,0,0,0,.861-.712l.576-4.333a.834.834,0,0,0-.861-.913H16.213c.131-2.677-.5-3.469,1.356-3.469,1.259-.141,3.244.456,3.244-.812V.985a.832.832,0,0,0-.75-.8A33.233,33.233,0,0,0,16.483,0c-8.109,0-6.44,8.42-6.64,9.14H6.93a.842.842,0,0,0-.868.813v4.333a.842.842,0,0,0,.868.813ZM7.8,10.766H10.71a.842.842,0,0,0,.868-.813V6.54c0-3.123,1.787-4.914,4.9-4.914,1.016,0,1.95.047,2.593.094V4.048c-.465.222-4.6-.958-4.6,2.922V9.955a.842.842,0,0,0,.868.813h3.223l-.361,2.708H15.344a.842.842,0,0,0-.868.813V24.375h-2.9V14.287a.842.842,0,0,0-.868-.812H7.8Z" transform="translate(5.938 8)" fill="#fff"/>
</svg>
