<svg id="likedin_black" xmlns="http://www.w3.org/2000/svg" width="60" height="60" viewBox="0 0 60 60">
  <g id="linkedin" transform="translate(15 15)">
    <path id="Path_2" data-name="Path 2" d="M22.593,28.221H29a.988.988,0,0,0,1.031-.937C29.55,17.463,32.563,7.1,21.317,7.1a8.716,8.716,0,0,0-5.127,1.558c0-1.826-2.171-.816-7.182-1.087a.988.988,0,0,0-1.031.937c.415,17.7-.927,19.71,1.031,19.71h6.407c1.86,0,.676-2.385,1.031-10.233,0-3.242,1.031-3.877,2.813-3.877,1.971,0,2.3,1.245,2.3,4.034C21.916,25.851,20.74,28.221,22.593,28.221ZM19.259,12.235c-6.174,0-4.875,6.171-4.875,14.11H10.04V9.447h4.089v1.622a1.12,1.12,0,0,0,2.033.437,5.859,5.859,0,0,1,5.156-2.531c4.849,0,6.651,2.166,6.651,7.994v9.377H23.624c0-8.928,1.039-14.111-4.365-14.111Z" transform="translate(2.923 1.774)" fill="#242424"/>
    <path id="Path_3" data-name="Path 3" d="M1.421,7.486C-.531,7.486.805,9.467.39,27.2a.988.988,0,0,0,1.031.937H7.835c1.952,0,.616-1.981,1.031-19.71,0-1.618-2.586-.664-7.445-.937ZM6.8,26.259H2.452V9.361H6.8Z" transform="translate(0.08 1.861)" fill="#242424"/>
    <path id="Path_4" data-name="Path 4" d="M4.734,0a4.345,4.345,0,1,0,0,8.66A4.345,4.345,0,1,0,4.734,0Zm0,6.785a2.463,2.463,0,1,1,0-4.91A2.463,2.463,0,1,1,4.734,6.785Z" transform="translate(-0.03)" fill="#242424"/>
  </g>
  <g id="Ellipse_2" data-name="Ellipse 2" fill="none" stroke="#242424" stroke-width="2">
    <circle cx="30" cy="30" r="30" stroke="none"/>
    <circle cx="30" cy="30" r="29" fill="none"/>
  </g>
</svg>
