<svg id="linkedin" xmlns="http://www.w3.org/2000/svg" width="40" height="40" viewBox="0 0 40 40">
  <g id="linkedin-2" data-name="linkedin" transform="translate(9.969 10)">
    <path id="Path_2" data-name="Path 2" d="M17.7,21.181H21.97a.659.659,0,0,0,.687-.625C22.336,14.009,24.345,7.1,16.848,7.1A5.811,5.811,0,0,0,13.43,8.14c0-1.217-1.447-.544-4.788-.725a.659.659,0,0,0-.687.625c.277,11.8-.618,13.14.687,13.14h4.271c1.24,0,.451-1.59.687-6.822,0-2.161.687-2.585,1.875-2.585,1.314,0,1.535.83,1.535,2.69C17.247,19.6,16.463,21.181,17.7,21.181ZM15.476,10.524c-4.116,0-3.25,4.114-3.25,9.407H9.33V8.665h2.726V9.746a.747.747,0,0,0,1.356.292,3.906,3.906,0,0,1,3.437-1.687c3.233,0,4.434,1.444,4.434,5.329v6.251h-2.9c0-5.952.693-9.407-2.91-9.407Z" transform="translate(-0.658 -1.185)" fill="#fff"/>
    <path id="Path_3" data-name="Path 3" d="M1.055,7.474c-1.3,0-.411,1.321-.687,13.14a.659.659,0,0,0,.687.625H5.331c1.3,0,.411-1.321.687-13.14,0-1.079-1.724-.442-4.963-.625ZM4.644,19.99h-2.9V8.724h2.9Z" transform="translate(-0.024 -1.243)" fill="#fff"/>
    <path id="Path_4" data-name="Path 4" d="M3.166,0a2.9,2.9,0,1,0,0,5.773A2.9,2.9,0,1,0,3.166,0Zm0,4.523a1.642,1.642,0,1,1,0-3.274A1.642,1.642,0,1,1,3.166,4.523Z" fill="#fff"/>
  </g>
  <g id="Ellipse_2" data-name="Ellipse 2" fill="none" stroke="#fff" stroke-width="2">
    <circle cx="20" cy="20" r="20" stroke="none"/>
    <circle cx="20" cy="20" r="19" fill="none"/>
  </g>
</svg>
