<svg id="telegram" xmlns="http://www.w3.org/2000/svg" width="40" height="40" viewBox="0 0 40 40">
  <path id="telegram_1_" data-name="telegram (1)" d="M21.837,15.72a.645.645,0,0,0-.739-.162L.386,24.625a.644.644,0,0,0-.026,1.169l4.945,2.432,1.232,7.393a.645.645,0,0,0,1.1.358l3.9-3.9,5.571,3.98a.645.645,0,0,0,1.007-.4l3.867-19.379A.643.643,0,0,0,21.837,15.72ZM5.816,27.04,2.175,25.25l14.387-6.3Zm2.017,1.916-.6,3-.647-3.88,7.9-5.951-6.483,6.5A.654.654,0,0,0,7.833,28.956Zm.392,4.611.676-3.38,1.577,1.127Zm8.826.857L9.458,29,20.306,18.115Z" transform="translate(9 -5.505)" fill="#fff"/>
  <g id="Ellipse_5" data-name="Ellipse 5" fill="none" stroke="#fff" stroke-width="2">
    <circle cx="20" cy="20" r="20" stroke="none"/>
    <circle cx="20" cy="20" r="19" fill="none"/>
  </g>
</svg>
