<svg id="telegram_black" xmlns="http://www.w3.org/2000/svg" width="60" height="60" viewBox="0 0 60 60">
  <path id="telegram_1_" data-name="telegram (1)" d="M32.755,15.828a.968.968,0,0,0-1.109-.242L.579,29.185a.967.967,0,0,0-.039,1.753l7.418,3.648,1.848,11.09a.967.967,0,0,0,1.651.537l5.856-5.856,8.357,5.97a.967.967,0,0,0,1.51-.6l5.8-29.068A.964.964,0,0,0,32.755,15.828ZM8.724,32.808,3.262,30.122l21.58-9.447Zm3.025,2.874-.9,4.5-.97-5.82,11.857-8.926-9.725,9.757A.981.981,0,0,0,11.75,35.682Zm.588,6.916,1.014-5.07,2.366,1.69Zm13.239,1.285L14.187,35.747,30.459,19.421Z" transform="translate(13.5 -1.505)" fill="#242424"/>
  <g id="Ellipse_5" data-name="Ellipse 5" fill="none" stroke="#242424" stroke-width="2">
    <circle cx="30" cy="30" r="30" stroke="none"/>
    <circle cx="30" cy="30" r="29" fill="none"/>
  </g>
</svg>
